<?xml version="1.0" standalone="no"?>
<!DOCTYPE svg PUBLIC "-//W3C//DTD SVG 20010904//EN"
 "http://www.w3.org/TR/2001/REC-SVG-20010904/DTD/svg10.dtd">
<svg version="1.0" xmlns="http://www.w3.org/2000/svg"
 width="551.000000pt" height="551.000000pt" viewBox="0 0 551.000000 551.000000"
 preserveAspectRatio="xMidYMid meet">
<metadata>
Created by potrace 1.11, written by Peter Selinger 2001-2013
</metadata>
<g transform="translate(0.000000,551.000000) scale(0.100000,-0.100000)"
fill="#000000" stroke="none">
<path d="M1000 4875 l0 -275 68 0 c37 0 512 0 1055 -1 543 0 986 -3 984 -7 -4
-7 -177 -293 -235 -387 -16 -27 -80 -133 -142 -235 -61 -102 -143 -237 -182
-300 -39 -63 -78 -127 -87 -142 -9 -15 -59 -98 -112 -185 -53 -87 -165 -273
-251 -413 -150 -249 -193 -319 -226 -370 -9 -14 -17 -27 -17 -30 0 -3 -37 -63
-81 -135 -78 -125 -118 -192 -158 -258 -10 -18 -55 -93 -101 -167 -160 -263
-368 -605 -385 -635 -10 -16 -43 -71 -74 -121 l-56 -91 0 -271 0 -271 38 -10
c36 -9 113 -26 162 -37 14 -3 34 -7 45 -9 49 -11 72 -16 105 -21 19 -3 62 -10
95 -16 33 -5 69 -11 80 -13 18 -2 70 -10 135 -20 57 -9 138 -18 260 -30 30 -3
73 -8 95 -10 325 -34 909 -50 1153 -32 113 9 309 43 412 72 150 41 252 80 375
142 318 159 544 396 635 668 13 39 25 75 26 80 81 336 7 622 -219 850 -132
132 -272 222 -462 297 l-50 19 70 -68 c83 -81 140 -149 181 -218 159 -265 172
-546 38 -823 -78 -162 -218 -283 -427 -368 -62 -25 -215 -69 -272 -78 -109
-18 -169 -26 -235 -31 -81 -6 -370 -7 -460 -1 -114 8 -234 18 -254 22 -12 2
-41 7 -66 10 -184 23 -535 91 -705 137 -105 28 -104 27 -41 126 24 37 85 137
136 222 51 85 106 173 122 196 15 23 28 44 28 47 0 3 22 40 49 83 26 43 115
188 196 323 81 135 158 261 170 280 31 50 443 728 808 1330 55 91 123 203 152
250 29 47 130 212 224 368 l171 282 0 275 0 275 -1385 0 -1385 0 0 -275z"/>
<path d="M3899 3839 c-160 -18 -313 -163 -335 -319 -3 -23 -7 -48 -8 -57 -5
-31 15 -125 36 -171 47 -103 123 -171 236 -212 130 -47 293 -8 396 96 262 263
46 704 -325 663z"/>
<path d="M3034 2197 c-72 -28 -108 -52 -157 -106 -112 -125 -134 -294 -55
-442 99 -189 319 -262 513 -170 132 62 212 183 220 330 8 160 -76 300 -222
373 -53 26 -77 31 -150 34 -74 4 -98 0 -149 -19z"/>
</g>
</svg>
