<?xml version="1.0" encoding="utf-8"?>
<!-- Generator: Adobe Illustrator 22.1.0, SVG Export Plug-In . SVG Version: 6.00 Build 0)  -->
<svg version="1.1" id="Layer_1" xmlns="http://www.w3.org/2000/svg" xmlns:xlink="http://www.w3.org/1999/xlink" x="0px" y="0px"
	 viewBox="0 0 200 200" style="enable-background:new 0 0 200 200;" xml:space="preserve">
<style type="text/css">
	.st0{fill:#FFFFFF;}
</style>
<path class="st0" d="M87.6,122l4.2-5.9L78,109.8l-1.7,2.3c-5.7,7.8-4.4,5.7-5.7,7.8l-4.9,5.8l-12.3-4.5c-1.1,0.8-5.1,4.1-6.2,4.9
	c-0.5,0.4-0.8,1.1-0.8,1.8c0.4,4.5,0.8,9,1.3,13.6c0.1,0.7,0.6,1.4,1.2,1.8c4.3,2.4,8.6,4.8,13,7.1c0.8,0.4,1.8,0.6,2.7,0.6
	c14-1.3,28-2.7,42-4c1,0,1.9-0.6,2.1-1.6c1.9-5.7,3.8-11.4,5.7-17c0.3-0.7,0.2-1.5-0.4-2l0,0l-7-4.2l-20.3,18.3l-9.4-4.4l7.7-10.5"
	/>
<path class="st0" d="M116.1,84.3l-9.1-4.7l-5.7-2.9l-16.3,23.5l17.4,7.2c0.4-0.1,0.8-0.3,1.1-0.6"/>
<path class="st0" d="M20.2,71.8L7.3,75.2c0,0-1.9,0.6-1.9,1.9c0,5.6,0,11.2,0,16.9c0,1.7,0,3.3,0,5.1L7.3,99
	c7.9-0.8,15.8-1.6,23.8-2.3c1,0,1.9-0.7,2.2-1.6c2.7-6.6,5.3-13.2,7.9-19.8l19.2-15.1c4,2.3,7.7,5.1,11.1,8.2l-9.2-1.5
	c-0.5,0-1.4,0-1.6,0.4L45.5,78.2c0,0-8.7,21.5-9.8,24.1c5.4,3.7,10.7,7.6,15.7,11.9l9-12.4l-8.6-3.9l3.8-19.2l21.9,13.6l11.8-17.3
	l-12.8-6.4L79,48.4L93.7,56l14.8-20.3l17.8,8.2l-16.6,22.7l14.5,6.2l13.3-19.1c-0.5-7.9-0.9-15.8-1.3-23.7c0-1.6-0.6-2-2-2.1
	c-6.8-0.4-35.9,4.1-35.9,4.1s-11.8-3.9-12.8-3.8l-27.2,2.4l-1.6,0.2l-1.1,0.4c-9,4.5-25.8,15.2-34.9,19.5c-2.8,1.2-5,3.5-6,6.4
	c-1,2.7-2.4,5.4-3.6,8.2l10.6,6.1"/>
<path class="st0" d="M148.8,83.7c1-0.1,1.8-0.5,2.6-1.2c3-3,6-6,8.9-9l9.7-9.9l-21.8-22.4c-1-1.1-2.8-1.1-3.8-0.1
	c-0.1,0.1-0.2,0.2-0.2,0.3c-1.2,1.4-2.4,2.7-3.6,4.2c-0.3,0.5-0.4,1-0.2,1.5c0.3,2.2,0.7,4.4,1,6.6l12.4,5.7l-14.9,20.3"/>
<path class="st0" d="M113.4,151.2c-0.5-0.3-1.1-0.4-1.7-0.2c-3.6,1.2-7.1,2.6-10.6,3.8c-1.8,0.7-3.6,1.2-5.4,1.8
	c0.5,0.4,0.8,0.7,1.1,1l23.7,20.3c2.9,2.5,2.9,2.5,6.2,0.6l10-5.9c-0.2-0.3-0.3-0.4-0.4-0.6C128.6,165.1,121,158.2,113.4,151.2z"/>
<path class="st0" d="M48,117.4c-6.7-5.1-13.7-9.8-20.9-14.1c-0.5-0.2-1.1-0.3-1.7-0.2l-17.1,1.6c-0.4,0-0.8,0.2-1.4,0.3
	c0.5,0.4,0.8,0.7,1.1,0.9c9.4,6.4,22.4,15.2,31.8,21.6"/>
<path class="st0" d="M131.2,126.8l-2.7,5.4c-2,0.2-5.9,0.3-7.9,0.5c-0.5,0.2-0.9,0.6-1.1,1.1c-1.1,3.7-2.1,7.4-3.2,11
	c-0.3,0.7,0,1.5,0.7,1.9c4.5,3.3,9,6.6,13.6,9.9c0.6,0.4,1.3,0.5,2,0.3c4.1-1.3,8.2-2.7,12.2-3.9c5.4-1.8,10.9-3.6,16.3-5.4
	c0.4-0.2,1.1-0.9,1-1.3c-0.5-5.7-1-11.4-1.6-17.2c-0.2-0.1-0.4-0.1-0.6-0.1c0,0,5.4-1.2,6.3-1.3c8.4-0.8,7.7-0.8,16.1-1.7
	c1.1,0,1.4-0.5,1.3-1.6l9-19.4c0.9-1.9,0-4.2,0-6.4c-0.3,0-0.5,0-0.8,0c-9.4,1.2-18.9,2.4-28.3,3.7l5.9-4.8
	c8.7-1.5,9.7-1.6,18.5-3.1l4.2-0.7L178,70.7l-0.6,0.5l-26.1,13.6l-7.5,15.1l-15.4-7.3L116.2,111l20.3,4.8l-5.1,11.1"/>
<polyline class="st0" points="143.6,99.8 128.2,92.5 116,110.9 "/>
</svg>
